<?xml version="1.0" encoding="iso-8859-1"?>
<!-- Generator: Adobe Illustrator 19.0.0, SVG Export Plug-In . SVG Version: 6.00 Build 0)  -->
<svg version="1.1" id="Capa_1" xmlns="http://www.w3.org/2000/svg" xmlns:xlink="http://www.w3.org/1999/xlink" x="0px" y="0px"
	 viewBox="0 0 488 488" style="enable-background:new 0 0 488 488;" xml:space="preserve">
<path style="fill:#B5B5B5;" d="M412,200h16v120h-16V200z"/>
<path style="fill:#0D70B1;" d="M436,320v56h-32v-56c0.026-8.826,7.174-15.974,16-16C428.809,304.065,435.935,311.191,436,320z"/>
<path style="fill:#B5B5B5;" d="M116,208v48l-32,16l-0.24,104.96c-2.536-0.644-5.143-0.966-7.76-0.96H52V272l-32-16v-48l24-16v40
	l24,16l24-16v-40L116,208z"/>
<g>
	<path style="fill:#FFDFC4;" d="M172,264v32h-16c-8.809-0.065-15.935-7.191-16-16c0.026-8.826,7.174-15.974,16-16H172z"/>
	<path style="fill:#FFDFC4;" d="M332,264c8.826,0.026,15.974,7.174,16,16c-0.065,8.809-7.191,15.935-16,16h-16v-32H332z"/>
</g>
<g>
	<path style="fill:#D95354;" d="M380,471.84V424h48v56h-48c0-2.72-0.16-5.52-0.4-8.16H380z"/>
	<path style="fill:#D95354;" d="M108,472h0.4c-0.24,2.56-0.4,5.36-0.4,8H60v-56h48V472z"/>
</g>
<g>
	<path style="fill:#FFDFC4;" d="M52,376l31.76,0.96c14.244,3.56,24.238,16.358,24.24,31.04v16H60c-13.255,0-24-10.745-24-24v-24H52z
		"/>
	<path style="fill:#FFDFC4;" d="M452,376v24c0,13.255-10.745,24-24,24h-48v-16c-0.012-12.258,7.022-23.431,18.08-28.72
		c4.314-2.182,9.086-3.306,13.92-3.28H452z"/>
	<path style="fill:#FFDFC4;" d="M268,152.64c-2.641-0.458-5.319-0.672-8-0.64h-32c-30.928,0-56,25.072-56,56l0,0v104
		c0.005,26.085,15.825,49.562,40,59.36v63.68L244,464l32-32v-60.64c24.175-9.798,39.995-33.275,40-59.36V208
		C316.04,180.16,295.564,156.545,268,152.64z"/>
</g>
<path style="fill:#D95354;" d="M380,480H108c0-2.64,0.16-5.44,0.4-8v-0.16c4.185-40.816,38.57-71.849,79.6-71.84h24v3.04L244,432
	l32-32h24c41.03-0.009,75.415,31.024,79.6,71.84C379.84,474.48,380,477.28,380,480z"/>
<g>
	<path style="fill:#454545;" d="M268,152.64c-0.326,48.362-39.637,87.387-88,87.36h-8v-32c0-30.928,25.072-56,56-56h32
		C262.681,151.968,265.359,152.182,268,152.64z"/>
	<path style="fill:#454545;" d="M316,208v40c-26.51,0-48-21.49-48-48v-47.36C295.564,156.545,316.04,180.16,316,208z"/>
</g>
<circle cx="272" cy="268" r="12"/>
<circle cx="216" cy="268" r="12"/>
<g>
	<path style="fill:none;stroke:#000000;stroke-width:2;stroke-linejoin:round;" d="M236,272v40h24"/>
	<path style="fill:none;stroke:#000000;stroke-width:2;stroke-linejoin:round;" d="M220,335.68
		c13.22,13.255,34.681,13.283,47.936,0.064c0.021-0.021,0.043-0.043,0.064-0.064"/>
</g>
<g>
	<path style="fill:#5B5B5B;" d="M132,128c-13.255,0-24-10.745-24-24s10.745-24,24-24s24,10.745,24,24S145.255,128,132,128z M132,96
		c-4.418,0-8,3.582-8,8s3.582,8,8,8s8-3.582,8-8S136.418,96,132,96z"/>
	<path style="fill:#5B5B5B;" d="M68,176c-13.255,0-24-10.745-24-24s10.745-24,24-24s24,10.745,24,24S81.255,176,68,176z M68,144
		c-4.418,0-8,3.582-8,8s3.582,8,8,8s8-3.582,8-8S72.418,144,68,144z"/>
	<path style="fill:#5B5B5B;" d="M348,48c-13.255,0-24-10.745-24-24s10.745-24,24-24s24,10.745,24,24S361.255,48,348,48z M348,16
		c-4.418,0-8,3.582-8,8s3.582,8,8,8s8-3.582,8-8S352.418,16,348,16z"/>
	<path style="fill:#5B5B5B;" d="M460,128c-13.255,0-24-10.745-24-24s10.745-24,24-24s24,10.745,24,24S473.255,128,460,128z M460,96
		c-4.418,0-8,3.582-8,8s3.582,8,8,8s8-3.582,8-8S464.418,96,460,96z"/>
	<path style="fill:#5B5B5B;" d="M380,192c-13.255,0-24-10.745-24-24s10.745-24,24-24s24,10.745,24,24S393.255,192,380,192z M380,160
		c-4.418,0-8,3.582-8,8s3.582,8,8,8s8-3.582,8-8S384.418,160,380,160z"/>
	<path style="fill:#5B5B5B;" d="M84,48c-13.255,0-24-10.745-24-24S70.745,0,84,0s24,10.745,24,24S97.255,48,84,48z M84,16
		c-4.418,0-8,3.582-8,8s3.582,8,8,8s8-3.582,8-8S88.418,16,84,16z"/>
	<path style="fill:#5B5B5B;" d="M140,88h-16V59.312L94.344,29.656l11.312-11.312l32,32c1.5,1.5,2.344,3.534,2.344,5.656V88z"/>
	<path style="fill:#5B5B5B;" d="M4,16h64v16H4V16z"/>
	<path style="fill:#5B5B5B;" d="M446.344,101.656L416.688,72H388c-2.122,0-4.156-0.844-5.656-2.344l-32-32l11.312-11.312L391.312,56
		H420c2.122,0,4.156,0.844,5.656,2.344l32,32L446.344,101.656z"/>
	<path style="fill:#5B5B5B;" d="M172,58.24c46.733-15.6,97.267-15.6,144,0v0.24c-23.22,7.725-47.529,11.668-72,11.68
		c-24.471-0.012-48.781-3.955-72-11.68V58.24z"/>
</g>
<path style="fill:#B5B5B5;" d="M316,58.48v57.84c-46.733,15.6-97.267,15.6-144,0V58.48c23.219,7.725,47.529,11.668,72,11.68
	C268.471,70.148,292.78,66.205,316,58.48z"/>
<g>
	<path style="fill:#5B5B5B;" d="M54.344,149.656L24.688,120H4v-16h24c2.122,0,4.156,0.844,5.656,2.344l32,32L54.344,149.656z"/>
	<path style="fill:#5B5B5B;" d="M396,160h88v16h-88V160z"/>
	<path style="fill:#5B5B5B;" d="M236,0h16v24h-16V0z"/>
</g>
<circle cx="272" cy="268" r="12"/>
<circle cx="216" cy="268" r="12"/>
<path d="M228,272v40c0,4.418,3.582,8,8,8h24v-16h-16v-32H228z"/>
<path d="M324,312v-8h8c13.228-0.066,23.934-10.772,24-24c0-13.255-10.745-24-24-24h-8v-48c-0.067-31.642-23.23-58.493-54.52-63.2
	c-3.129-0.558-6.302-0.826-9.48-0.8h-32c-35.33,0.04-63.96,28.67-64,64v48h-8c-13.255,0-24,10.745-24,24
	c0.066,13.228,10.772,23.934,24,24h8v8c-0.01,27.304,15.503,52.239,40,64.296V392h-16c-28.667-0.059-55.552,13.897-72,37.376V408
	c0.033-16-9.506-30.469-24.224-36.744L92,276.952l27.576-13.752c2.725-1.362,4.441-4.153,4.424-7.2v-48
	c0-2.674-1.335-5.172-3.56-6.656l-24-16c-3.675-2.452-8.643-1.461-11.095,2.215C84.468,188.874,84,190.419,84,192v35.72L68,238.4
	l-16-10.68V192c0.001-4.418-3.581-8.001-7.999-8.001c-1.581,0-3.126,0.468-4.441,1.345l-24,16C13.335,202.828,12,205.326,12,208v48
	c-0.017,3.047,1.699,5.838,4.424,7.2L44,276.944V368h-8c-4.418,0-8,3.582-8,8v24c0.055,14.547,9.915,27.227,24,30.864V480
	c0,4.418,3.582,8,8,8h368c4.418,0,8-3.582,8-8v-49.136c14.085-3.637,23.945-16.317,24-30.864v-24c0-4.418-3.582-8-8-8h-8v-48
	c-0.042-10.134-6.445-19.15-16-22.528V200h-16v97.472c-9.555,3.378-15.958,12.394-16,22.528v51.464
	c-0.448,0.208-0.928,0.376-1.368,0.6C380.827,378.718,372.037,392.675,372,408v21.352c-16.455-23.467-43.338-37.414-72-37.352h-16
	v-15.696C308.5,364.246,324.013,339.307,324,312z M332,272c4.418,0,8,3.582,8,8c0.007,2.156-0.879,4.218-2.448,5.696
	c-1.459,1.493-3.465,2.325-5.552,2.304h-8v-16H332z M308,208v31.2c-18.611-3.827-31.976-20.199-32-39.2v-37.152
	C295.117,169.65,307.916,187.709,308,208z M180,208c0.026-26.499,21.501-47.974,48-48h31.592c-4.073,40.894-38.496,72.034-79.592,72
	V208z M156,288c-2.156,0.007-4.218-0.879-5.696-2.448c-1.493-1.459-2.325-3.465-2.304-5.552c0-4.418,3.582-8,8-8h8v16H156z M180,312
	v-64c25.477,0.076,49.926-10.044,67.896-28.104c4.618-4.636,8.754-9.729,12.344-15.2c2.211,25.935,22,46.928,47.76,50.664V312
	c0.049,22.835-13.804,43.401-34.984,51.936C266.332,366.613,259.2,367.992,252,368h-16c-7.191-0.006-14.315-1.379-20.992-4.048
	C193.815,355.421,179.95,334.846,180,312z M55.576,264.8L28,251.056V212.28l8-5.328V232c0,2.674,1.335,5.172,3.56,6.656l24,16
	c2.688,1.794,6.192,1.794,8.88,0l24-16c2.225-1.484,3.56-3.982,3.56-6.656v-25.048l8,5.328v38.776L80.424,264.8
	c-2.725,1.362-4.441,4.153-4.424,7.2l-0.216,96H60v-96C60.017,268.953,58.301,266.162,55.576,264.8z M44,400v-16h7.888l30.536,0.92
	c10.398,2.843,17.6,12.301,17.576,23.08v8H60C51.163,416,44,408.837,44,400z M68,432h32v39.84L68,472V432z M420,472h-32.392v-0.16
	H388V432h32V472z M412,320c0-4.418,3.582-8,8-8s8,3.582,8,8v48h-16V320z M401.704,386.4c3.194-1.604,6.722-2.426,10.296-2.4h32v16
	c0,8.837-7.163,16-16,16h-40v-8C388.031,398.763,393.36,390.363,401.704,386.4z M371.576,472H116.424
	c3.967-36.506,34.856-64.125,71.576-64h19.512l-0.88,0.968l32,28.96c3.16,2.861,8.009,2.741,11.024-0.272L279.312,408H300
	C336.725,407.864,367.62,435.489,371.576,472L371.576,472z M268,396.688l-24.272,24.272L220,399.488v-17.36
	c5.247,1.218,10.614,1.846,16,1.872h16c5.386-0.026,10.753-0.654,16-1.872V396.688z"/>
<path d="M244,353.64c11.139,0.026,21.826-4.404,29.68-12.304l-11.312-11.312c-4.868,4.897-11.495,7.639-18.4,7.616
	c-6.858,0.014-13.434-2.724-18.256-7.6l-11.344,11.28c7.817,7.907,18.481,12.346,29.6,12.32H244z"/>
<path d="M460,80c-3.564,0.014-7.078,0.834-10.28,2.4l-24.064-24.056c-1.5-1.5-3.534-2.344-5.656-2.344h-28.688L369.6,34.28
	c1.566-3.202,2.386-6.716,2.4-10.28c0-13.255-10.745-24-24-24s-24,10.745-24,24s10.745,24,24,24c3.564-0.014,7.078-0.834,10.28-2.4
	l24.064,24.064c1.501,1.497,3.536,2.338,5.656,2.336h28.688L438.4,93.72c-1.566,3.202-2.386,6.716-2.4,10.28
	c0,13.255,10.745,24,24,24s24-10.745,24-24S473.255,80,460,80z M340,24c0-4.418,3.582-8,8-8s8,3.582,8,8s-3.582,8-8,8
	S340,28.418,340,24z M460,112c-4.418,0-8-3.582-8-8s3.582-8,8-8s8,3.582,8,8S464.418,112,460,112z"/>
<path d="M380,144c-13.255-0.055-24.044,10.646-24.099,23.9s10.646,24.044,23.9,24.099c10.207,0.042,19.324-6.376,22.727-16H484v-16
	h-81.472C399.15,150.445,390.134,144.042,380,144z M380,176c-4.418,0-8-3.582-8-8s3.582-8,8-8s8,3.582,8,8S384.418,176,380,176z"/>
<path d="M84,48c7.516-0.019,14.585-3.576,19.08-9.6L124,59.312v22.16c-12.497,4.418-19.046,18.131-14.627,30.627
	c4.418,12.497,18.131,19.046,30.627,14.627s19.046-18.131,14.627-30.627c-2.416-6.835-7.793-12.211-14.627-14.627V56
	c0-2.122-0.844-4.156-2.344-5.656l-30.032-30.032C105.651,7.272,93.48-1.7,80.44,0.273C71.692,1.597,64.393,7.649,61.472,16H4v16
	h57.472C64.85,41.555,73.866,47.958,84,48z M132,112c-4.418,0-8-3.582-8-8s3.582-8,8-8s8,3.582,8,8S136.418,112,132,112z M84,16
	c4.418,0,8,3.582,8,8s-3.582,8-8,8s-8-3.582-8-8S79.582,16,84,16z"/>
<path d="M320.672,52c-0.709-0.437-1.485-0.756-2.296-0.944l0.152-0.472c-48.393-16.024-100.663-16.024-149.056,0l0.152,0.472
	c-0.811,0.188-1.587,0.507-2.296,0.944c-2.097,1.509-3.336,3.937-3.328,6.52v57.8c0.003,3.442,2.206,6.496,5.472,7.584
	c24.036,7.981,49.201,12.039,74.528,12.016c25.326,0.028,50.491-4.024,74.528-12c3.271-1.09,5.476-4.152,5.472-7.6v-57.8
	C324.008,55.937,322.769,53.509,320.672,52z M283.944,58.4c-26.41,4.832-53.478,4.832-79.888,0
	C230.466,53.568,257.534,53.568,283.944,58.4z M308,110.472c-41.735,12.608-86.265,12.608-128,0V69.336
	c41.863,11.712,86.137,11.712,128,0V110.472z"/>
<path d="M46.4,141.72c-1.566,3.202-2.386,6.716-2.4,10.28c0,13.255,10.745,24,24,24s24-10.745,24-24s-10.745-24-24-24
	c-3.564,0.014-7.078,0.834-10.28,2.4l-24.064-24.056c-1.5-1.5-3.534-2.344-5.656-2.344H4v16h20.688L46.4,141.72z M76,152
	c0,4.418-3.582,8-8,8s-8-3.582-8-8s3.582-8,8-8S76,147.582,76,152z"/>
<path d="M236,0h16v24h-16V0z"/>
<g>
</g>
<g>
</g>
<g>
</g>
<g>
</g>
<g>
</g>
<g>
</g>
<g>
</g>
<g>
</g>
<g>
</g>
<g>
</g>
<g>
</g>
<g>
</g>
<g>
</g>
<g>
</g>
<g>
</g>
</svg>
